<svg width="273" height="269" viewBox="0 0 273 269" fill="none" xmlns="http://www.w3.org/2000/svg">
<rect width="273" height="269" rx="41" fill="#228D8B"/>
<rect width="273" height="269" rx="41" stroke="white"/>
<rect x="208.93" y="103.345" width="21.2619" height="122.618" rx="10" fill="white"/>
<path d="M134.569 48.4589C130.505 44.7192 130.171 38.3281 133.822 34.1842L134.94 32.9143C138.591 28.7703 144.845 28.4426 148.909 32.1823L225.737 102.88C229.801 106.62 230.136 113.011 226.485 117.155L225.366 118.425C221.715 122.569 215.461 122.897 211.397 119.157L134.569 48.4589Z" fill="white"/>
<path d="M209 111.55C209 105.723 213.723 101 219.55 101C225.377 101 230.1 105.723 230.1 111.55V122.45C230.1 128.277 225.377 133 219.55 133C213.723 133 209 128.277 209 122.45V111.55Z" fill="white"/>
<rect width="15.5212" height="90.7992" rx="7.76062" transform="matrix(-1 0 0 1 74.6836 135.201)" fill="white"/>
<rect width="15.5212" height="170.855" rx="7.76062" transform="matrix(0 -1 -1 0 230.193 225.969)" fill="white"/>
<path d="M148.698 49.2822C153.227 45.1153 153.6 37.9941 149.531 33.3767C145.462 28.7592 138.492 28.394 133.963 32.561L40.2016 118.823C35.6724 122.99 35.2993 130.111 39.3682 134.729C43.4371 139.346 50.4072 139.712 54.9364 135.545L148.698 49.2822Z" fill="white"/>
<path d="M149.539 48.4918C153.604 44.7525 153.938 38.3621 150.287 34.2185L148.775 32.5026C145.124 28.359 138.869 28.0312 134.804 31.7706L70.4981 90.9338C66.4337 94.6731 66.0989 101.063 69.7502 105.207L71.2624 106.923C74.9137 111.067 81.1686 111.394 85.233 107.655L149.539 48.4918Z" fill="white"/>
<path d="M91.8511 84.4014C93.8059 82.603 93.967 79.5295 92.2108 77.5366C90.4547 75.5437 87.4464 75.386 85.4916 77.1845L54.8197 105.403C52.8649 107.202 52.7039 110.275 54.46 112.268C56.2162 114.261 59.2245 114.419 61.1793 112.62L91.8511 84.4014Z" fill="white"/>
<path d="M57.4219 108.795C57.4219 107.537 56.402 106.517 55.1438 106.517C53.8857 106.517 52.8657 107.537 52.8657 108.795V131.395C52.8657 132.653 53.8857 133.673 55.1438 133.673C56.402 133.673 57.4219 132.653 57.4219 131.395V108.795Z" fill="white"/>
<rect x="111.27" y="153.789" width="27.3368" height="29.4904" rx="7" fill="white"/>
<rect x="144.68" y="153.789" width="27.3368" height="29.4904" rx="7" fill="white"/>
<rect x="111.27" y="118.865" width="27.3368" height="29.4904" rx="7" fill="white"/>
<rect x="144.68" y="118.865" width="27.3368" height="29.4904" rx="7" fill="white"/>
<rect x="68.4746" y="130.545" width="6.2085" height="11.6409" fill="white"/>
<mask id="mask0_244_38" style="mask-type:alpha" maskUnits="userSpaceOnUse" x="57" y="123" width="23" height="22">
<rect x="57.3184" y="140.732" width="25.3645" height="4.48753" transform="rotate(-42.61 57.3184 140.732)" fill="white"/>
</mask>
<g mask="url(#mask0_244_38)">
<rect x="59.1621" y="122.008" width="15.5212" height="22.5058" fill="white"/>
</g>
</svg>
