<svg width="70" height="70" viewBox="0 0 70 70" fill="none" xmlns="http://www.w3.org/2000/svg">
<ellipse cx="35" cy="35" rx="21" ry="26" fill="white" fill-opacity="0.77"/>
<path d="M24.6801 27.5292C24.3134 30.3367 24.0948 33.1615 24.0254 35.9919C27.8638 37.5952 31.539 39.5643 35.0001 41.8719C38.4616 39.5642 42.1372 37.5952 45.9761 35.9919C45.9066 33.1615 45.6881 30.3367 45.3214 27.5292M45.3214 27.5292C46.4881 27.1372 47.6708 26.7746 48.8654 26.4439C44.5142 23.3936 39.8694 20.7851 35.0001 18.6572C30.1308 20.7855 25.486 23.3945 21.1348 26.4452C22.3258 26.7741 23.5076 27.1355 24.6788 27.5292C28.2369 28.7255 31.6893 30.216 35.0001 31.9852C38.3104 30.216 41.7637 28.7255 45.3214 27.5292ZM28.0001 33.9999C28.2653 33.9999 28.5197 33.8945 28.7072 33.707C28.8947 33.5195 29.0001 33.2651 29.0001 32.9999C29.0001 32.7347 28.8947 32.4803 28.7072 32.2928C28.5197 32.1053 28.2653 31.9999 28.0001 31.9999C27.7349 31.9999 27.4805 32.1053 27.293 32.2928C27.1055 32.4803 27.0001 32.7347 27.0001 32.9999C27.0001 33.2651 27.1055 33.5195 27.293 33.707C27.4805 33.8945 27.7349 33.9999 28.0001 33.9999ZM28.0001 33.9999V29.0999C30.2624 27.6937 32.5992 26.4109 35.0001 25.2572M25.6574 40.6572C26.4014 39.9151 26.9913 39.0332 27.3934 38.0624C27.7954 37.0915 28.0016 36.0507 28.0001 34.9999V32.9999" stroke="#228E8D" stroke-width="2.2" stroke-linecap="round" stroke-linejoin="round"/>
<path d="M56.875 30.625C56.875 51.4558 35 63.4375 35 63.4375C35 63.4375 13.125 51.4558 13.125 30.625C13.125 24.8234 15.4297 19.2594 19.532 15.157C23.6344 11.0547 29.1984 8.75 35 8.75C40.8016 8.75 46.3656 11.0547 50.468 15.157C54.5703 19.2594 56.875 24.8234 56.875 30.625Z" stroke="#228E8D" stroke-width="4" stroke-linecap="round" stroke-linejoin="round"/>
<path d="M53 31C53 35.7739 51.1036 40.3523 47.7279 43.7279C44.3523 47.1036 39.7739 49 35 49C30.2261 49 25.6477 47.1036 22.2721 43.7279C18.8964 40.3523 17 35.7739 17 31C17 26.2261 18.8964 21.6477 22.2721 18.2721C25.6477 14.8964 30.2261 13 35 13C39.7739 13 44.3523 14.8964 47.7279 18.2721C51.1036 21.6477 53 26.2261 53 31Z" stroke="#D5F1EF" stroke-width="2" stroke-linecap="round" stroke-linejoin="round"/>
</svg>
