<svg width="754" height="260" viewBox="0 0 754 260" fill="none" xmlns="http://www.w3.org/2000/svg">
<path d="M277.625 199.844V120.625H291.375V199.844C291.375 206.719 294.969 211.875 302.156 215.312C304.76 216.562 306.948 217.188 308.719 217.188V230.781C302.677 230.781 296.635 228.646 290.594 224.375C282.052 218.229 277.729 210.052 277.625 199.844ZM316.531 230.781V217.188C319.969 217.188 323.51 215.781 327.156 212.969C331.531 209.531 333.771 205.156 333.875 199.844V120.625H347.469V199.844C347.469 211.51 342.26 220.312 331.844 226.25C326.531 229.271 321.427 230.781 316.531 230.781ZM354.387 230V168.281C354.387 163.281 356.627 158.385 361.106 153.594C366.627 147.969 373.45 145.156 381.575 145.156V158.125C376.262 158.125 372.2 160.208 369.387 164.375C368.242 166.146 367.669 167.969 367.669 169.844V230H354.387ZM388.45 158.125V145.156C398.137 145.156 405.69 149.062 411.106 156.875C414.023 160.938 415.481 164.74 415.481 168.281V230H402.2V169.844C402.2 166.615 400.585 163.75 397.356 161.25C394.752 159.167 391.783 158.125 388.45 158.125ZM423.806 133.906C423.806 130.677 425.317 128.385 428.337 127.031C429.379 126.615 430.421 126.406 431.462 126.406C434.587 126.406 436.879 127.865 438.337 130.781C438.754 131.823 438.962 132.865 438.962 133.906C438.962 137.031 437.504 139.323 434.587 140.781C433.546 141.198 432.504 141.406 431.462 141.406C428.233 141.406 425.89 139.948 424.431 137.031C424.015 135.99 423.806 134.948 423.806 133.906ZM424.9 230V147.656H438.025V230H424.9ZM445.256 205.312L457.756 200.938C458.381 205.312 460.048 208.906 462.756 211.719C465.569 214.531 468.225 216.25 470.725 216.875L474.319 217.812V230.469C465.152 230.469 457.444 226.562 451.194 218.75C447.34 213.854 445.36 209.375 445.256 205.312ZM446.506 150.156C446.506 138.906 451.35 130.469 461.038 124.844C465.829 122.031 470.256 120.625 474.319 120.625V133.438C470.673 133.854 467.235 135.781 464.006 139.219C461.09 142.448 459.631 146.146 459.631 150.312C459.631 156.667 464.215 161.458 473.381 164.688C475.673 165.417 479.163 166.406 483.85 167.656C488.746 169.01 492.183 170.052 494.163 170.781C503.538 174.635 509.527 179.896 512.131 186.562C513.485 189.896 514.163 193.646 514.163 197.812C514.163 206.875 510.673 214.74 503.694 221.406C497.34 227.448 490.152 230.469 482.131 230.469V217.812C486.402 217.604 490.517 215.573 494.475 211.719C498.433 207.656 500.465 203.021 500.569 197.812C500.569 190.521 495.517 185.208 485.413 181.875C483.225 181.146 479.892 180.26 475.413 179.219C470.621 178.073 467.392 177.135 465.725 176.406C456.871 172.76 451.194 167.969 448.694 162.031C447.235 158.594 446.506 154.635 446.506 150.156ZM482.131 133.438V120.625C491.194 120.625 498.746 124.635 504.788 132.656C507.808 136.719 509.475 140.365 509.788 143.594L497.131 147.812C495.673 140.521 491.506 135.885 484.631 133.906C482.965 133.594 482.131 133.438 482.131 133.438ZM516.081 159.062V146.406H526.394V119.375H539.675V146.406H549.675V159.219H539.675V204.062C539.675 211.458 542.696 215.573 548.738 216.406C549.883 216.615 551.029 216.719 552.175 216.719H554.363L557.331 230H551.706C538.894 229.896 531.029 225.104 528.113 215.625C527.071 212.083 526.55 207.708 526.55 202.5L526.394 159.062H516.081ZM558.469 210.312V202.812C558.469 196.042 561.125 191.094 566.438 187.969C568.104 187.135 574.51 185.156 585.656 182.031C598.052 178.594 604.25 175.573 604.25 172.969V170C604.25 167.5 603.625 165.208 602.375 163.125C599.979 159.167 596.333 157.188 591.438 157.188V145.156C598.625 145.156 604.615 147.448 609.406 152.031C614.51 157.031 617.062 162.865 617.062 169.531V212.344C617.167 215.573 618.573 217.292 621.281 217.5V229.844C616.073 229.844 611.854 228.021 608.625 224.375C604.458 227.917 598.729 229.74 591.438 229.844V217.656C592.375 217.656 593.365 217.604 594.406 217.5C600.969 216.458 604.25 212.552 604.25 205.781V187.812C601.542 189.271 596.333 190.938 588.625 192.812C578.729 195.208 573.156 196.979 571.906 198.125C570.76 199.167 570.135 200.833 570.031 203.125V207.344C570.135 214.01 574.719 217.448 583.781 217.656V229.844C577.323 229.844 571.698 228.177 566.906 224.844C561.281 220.885 558.469 216.042 558.469 210.312ZM559.562 166.406C559.562 161.406 561.542 156.927 565.5 152.969C570.604 147.76 576.75 145.156 583.938 145.156V157.344C581.958 157.344 580.083 157.76 578.312 158.594C573.521 160.885 571.125 164.948 571.125 170.781L559.562 166.406ZM622.419 145.469H636.325L660.075 211.562L643.981 259.688H630.7L646.013 211.406L622.419 145.469ZM656.95 181.719L671.169 145.469H684.919L664.138 200H662.731L656.95 181.719ZM683.712 207.812L696.056 205.469C696.056 210.156 698.504 213.854 703.4 216.562C705.796 217.708 708.087 218.333 710.275 218.438V230.781C700.171 230.781 692.619 227.135 687.619 219.844C685.015 215.99 683.712 211.979 683.712 207.812ZM684.494 169.375C684.494 159.896 688.817 152.865 697.462 148.281C701.629 146.094 705.796 145 709.962 145V157.188C705.171 157.188 701.473 159.167 698.869 163.125C697.515 165.104 696.837 167.188 696.837 169.375C696.837 172.708 699.442 175.417 704.65 177.5C708.608 179.167 716.265 181.354 727.619 184.062C734.702 185.521 739.754 189.01 742.775 194.531C744.337 197.448 745.119 200.729 745.119 204.375C745.119 214.375 741.108 221.771 733.087 226.562C728.4 229.375 723.035 230.781 716.994 230.781V218.438C721.785 218.438 725.796 216.771 729.025 213.438C731.317 211.042 732.462 208.229 732.462 205C732.462 200.833 728.348 197.5 720.119 195C718.035 194.375 714.702 193.49 710.119 192.344C705.223 191.198 701.681 190.26 699.494 189.531C691.577 186.406 686.785 181.667 685.119 175.312C684.702 173.438 684.494 171.458 684.494 169.375ZM716.837 157.344V145C725.796 145 733.035 148.333 738.556 155C741.994 159.271 743.712 163.75 743.712 168.438L731.369 170.469C731.369 164.74 728.244 160.729 721.994 158.438C720.119 157.708 718.4 157.344 716.837 157.344Z" fill="#228D8B"/>
<rect x="227.984" y="100.951" width="27.3972" height="158" rx="10" fill="#228D8B"/>
<path d="M130.044 28.2734C125.98 24.5336 125.645 18.1426 129.296 13.9986L134.553 8.032C138.204 3.88802 144.458 3.56033 148.522 7.30008L251.766 102.307C255.83 106.046 256.165 112.437 252.514 116.581L247.257 122.548C243.606 126.692 237.352 127.02 233.288 123.28L130.044 28.2734Z" fill="#228D8B"/>
<path d="M248.531 106.887C248.531 105.265 249.845 103.951 251.467 103.951V103.951C253.088 103.951 254.402 105.265 254.402 106.887V137.016C254.402 138.637 253.088 139.951 251.467 139.951V139.951C249.845 139.951 248.531 138.637 248.531 137.016V106.887Z" fill="#228D8B"/>
<rect width="20" height="117" rx="10" transform="matrix(-1 0 0 1 55 141.999)" fill="#228D8B"/>
<rect width="20" height="220.156" rx="10" transform="matrix(0 -1 -1 0 255.383 258.959)" fill="#228D8B"/>
<path d="M150.37 31.2885C156.206 25.9191 156.687 16.7431 151.444 10.7933V10.7933C146.201 4.8434 137.22 4.37281 131.384 9.74216L10.5669 120.896C4.73083 126.266 4.25005 135.442 9.49308 141.391V141.391C14.7361 147.341 23.7175 147.812 29.5536 142.442L150.37 31.2885Z" fill="#228D8B"/>
<path d="M153.578 28.3165C157.643 24.5772 157.977 18.1868 154.326 14.0432L148.562 7.50224C144.911 3.35864 138.656 3.03091 134.592 6.77024L47.4822 86.9128C43.4178 90.6521 43.083 97.0425 46.7343 101.186L52.4983 107.727C56.1497 111.871 62.4045 112.198 66.4689 108.459L153.578 28.3165Z" fill="#228D8B"/>
<path d="M78.002 75.731C80.0342 73.8614 80.2016 70.6662 78.376 68.5944L76.7926 66.7976C74.967 64.7258 71.8395 64.562 69.8073 66.4316L28.5225 104.415C26.4903 106.284 26.3229 109.479 28.1486 111.551L29.7319 113.348C31.5576 115.42 34.685 115.584 36.7172 113.714L78.002 75.731Z" fill="#228D8B"/>
<path d="M32.7578 107.974C32.7578 106.353 31.4436 105.039 29.8224 105.039V105.039C28.2012 105.039 26.887 106.353 26.887 107.974V137.095C26.887 138.716 28.2012 140.031 29.8224 140.031V140.031C31.4436 140.031 32.7578 138.716 32.7578 137.095V107.974Z" fill="#228D8B"/>
<rect x="102.143" y="165.95" width="35.225" height="38" rx="7" fill="#228D8B"/>
<rect x="145.195" y="165.95" width="35.225" height="38" rx="7" fill="#228D8B"/>
<rect x="102.143" y="120.95" width="35.225" height="38" rx="7" fill="#228D8B"/>
<rect x="145.195" y="120.95" width="35.225" height="38" rx="7" fill="#228D8B"/>
<rect x="47" y="136" width="8" height="15" fill="#228D8B"/>
<mask id="mask0_230_95" style="mask-type:alpha" maskUnits="userSpaceOnUse" x="32" y="127" width="29" height="27">
<rect x="32.625" y="149.127" width="32.6836" height="5.78243" transform="rotate(-42.61 32.625 149.127)" fill="#228D8B"/>
</mask>
<g mask="url(#mask0_230_95)">
<rect x="35" y="125" width="20" height="29" fill="#228D8B"/>
</g>
</svg>
