<svg width="260" height="259" viewBox="0 0 260 259" fill="none" xmlns="http://www.w3.org/2000/svg">
<rect x="227.984" y="100.951" width="27.3972" height="158" rx="10" fill="#228D8B"/>
<path d="M130.044 28.2734C125.98 24.5336 125.645 18.1426 129.296 13.9986L134.553 8.032C138.204 3.88802 144.458 3.56033 148.522 7.30008L251.766 102.307C255.83 106.046 256.165 112.437 252.514 116.581L247.257 122.548C243.606 126.692 237.352 127.02 233.288 123.28L130.044 28.2734Z" fill="#228D8B"/>
<path d="M248.531 106.887C248.531 105.265 249.845 103.951 251.467 103.951V103.951C253.088 103.951 254.402 105.265 254.402 106.887V137.016C254.402 138.637 253.088 139.951 251.467 139.951V139.951C249.845 139.951 248.531 138.637 248.531 137.016V106.887Z" fill="#228D8B"/>
<rect width="20" height="117" rx="10" transform="matrix(-1 0 0 1 55 141.999)" fill="#228D8B"/>
<rect width="20" height="220.156" rx="10" transform="matrix(0 -1 -1 0 255.383 258.959)" fill="#228D8B"/>
<path d="M150.37 31.2885C156.206 25.9191 156.687 16.7431 151.444 10.7933V10.7933C146.201 4.8434 137.22 4.37281 131.384 9.74216L10.5669 120.896C4.73083 126.266 4.25005 135.442 9.49308 141.391V141.391C14.7361 147.341 23.7175 147.812 29.5536 142.442L150.37 31.2885Z" fill="#228D8B"/>
<path d="M153.578 28.3165C157.643 24.5772 157.977 18.1868 154.326 14.0432L148.562 7.50224C144.911 3.35864 138.656 3.03091 134.592 6.77024L47.4822 86.9128C43.4178 90.6521 43.083 97.0425 46.7343 101.186L52.4983 107.727C56.1497 111.871 62.4045 112.198 66.4689 108.459L153.578 28.3165Z" fill="#228D8B"/>
<path d="M78.002 75.731C80.0342 73.8614 80.2016 70.6662 78.376 68.5944L76.7926 66.7976C74.967 64.7258 71.8395 64.562 69.8073 66.4316L28.5225 104.415C26.4903 106.284 26.3229 109.479 28.1486 111.551L29.7319 113.348C31.5576 115.42 34.685 115.584 36.7172 113.714L78.002 75.731Z" fill="#228D8B"/>
<path d="M32.7578 107.974C32.7578 106.353 31.4436 105.039 29.8224 105.039V105.039C28.2012 105.039 26.887 106.353 26.887 107.974V137.095C26.887 138.716 28.2012 140.031 29.8224 140.031V140.031C31.4436 140.031 32.7578 138.716 32.7578 137.095V107.974Z" fill="#228D8B"/>
<rect x="102.143" y="165.95" width="35.225" height="38" rx="7" fill="#228D8B"/>
<rect x="145.195" y="165.95" width="35.225" height="38" rx="7" fill="#228D8B"/>
<rect x="102.143" y="120.95" width="35.225" height="38" rx="7" fill="#228D8B"/>
<rect x="145.195" y="120.95" width="35.225" height="38" rx="7" fill="#228D8B"/>
<rect x="47" y="136" width="8" height="15" fill="#228D8B"/>
<mask id="mask0_230_96" style="mask-type:alpha" maskUnits="userSpaceOnUse" x="32" y="127" width="29" height="27">
<rect x="32.625" y="149.127" width="32.6836" height="5.78243" transform="rotate(-42.61 32.625 149.127)" fill="#228D8B"/>
</mask>
<g mask="url(#mask0_230_96)">
<rect x="35" y="125" width="20" height="29" fill="#228D8B"/>
</g>
</svg>
